<svg width="65" height="64" viewBox="0 0 115.913 69.662" xmlns="http://www.w3.org/2000/svg"><g stroke-linecap="round" fill-rule="evenodd" font-size="9pt" stroke="#000" stroke-width="0.25mm" style="stroke:#000;stroke-width:0.25mm;"><path d="M 21 12.386 L 21.1 11.986 L 21.1 11.386 L 21.1 10.986 Q 21.183 9.585 21.197 8.727 A 20.277 20.277 0 0 0 21.2 8.386 A 65.166 65.166 0 0 1 21.306 7.074 Q 21.434 5.685 21.594 4.746 A 13.424 13.424 0 0 1 21.7 4.186 Q 22.165 2.25 23.289 1.214 A 4.152 4.152 0 0 1 24 0.686 A 4.085 4.085 0 0 1 26.318 0 Q 27.279 0 28.384 0.38 A 8.931 8.931 0 0 1 28.4 0.386 A 13.035 13.035 0 0 1 29.407 0.774 Q 30.662 1.313 32.4 2.286 Q 34.184 3.376 37.736 5.743 A 452.621 452.621 0 0 1 37.8 5.786 A 905.789 905.789 0 0 0 39.694 7.061 Q 42.375 8.861 44.1 9.986 Q 53.1 6.886 64.7 8.986 Q 76.3 11.086 85.4 17.686 Q 90.1 15.286 94.2 12.186 A 3.048 3.048 0 0 0 94.411 12.067 Q 94.748 11.863 95.354 11.426 A 43.646 43.646 0 0 0 95.75 11.136 Q 96.9 10.286 97 10.186 Q 97.696 9.689 98.194 9.39 A 8.898 8.898 0 0 1 98.2 9.386 Q 99.4 8.786 100.5 8.986 Q 102.148 9.246 102.818 10.71 A 4.134 4.134 0 0 1 103 11.186 A 3.349 3.349 0 0 1 103.104 11.72 Q 103.153 12.139 103.12 12.641 A 7.07 7.07 0 0 1 103.1 12.886 A 8.723 8.723 0 0 1 103.086 13.332 Q 103.035 14.294 102.802 16.467 A 185.002 185.002 0 0 1 102.8 16.486 A 210.101 210.101 0 0 0 101.709 26.605 A 179.759 179.759 0 0 0 101.4 30.986 Q 101.4 31.386 101.3 31.786 Q 103.1 35.786 103.9 39.586 A 16.029 16.029 0 0 1 105.467 39.273 A 13.536 13.536 0 0 1 106.2 39.186 Q 107.625 38.996 109.773 38.806 A 149.879 149.879 0 0 1 110 38.786 L 110.6 38.786 A 7.195 7.195 0 0 0 111.12 38.767 A 8.664 8.664 0 0 0 111.45 38.736 Q 111.9 38.686 112.35 38.686 A 3.349 3.349 0 0 0 112.665 38.672 Q 112.818 38.658 112.949 38.628 A 1.595 1.595 0 0 0 113.1 38.586 L 113.4 38.586 A 2.408 2.408 0 0 1 115.1 39.236 Q 115.8 39.886 115.9 40.836 A 2.385 2.385 0 0 1 115.913 41.086 Q 115.913 41.886 115.35 42.536 Q 114.7 43.286 113.7 43.286 L 113.3 43.386 L 112.25 43.386 Q 111.7 43.386 111.1 43.436 Q 110.583 43.479 110.363 43.485 A 2.347 2.347 0 0 1 110.3 43.486 Q 108.422 43.665 107.183 43.764 A 97.576 97.576 0 0 1 106.9 43.786 A 40.009 40.009 0 0 0 105.044 44.142 A 45.914 45.914 0 0 0 104.4 44.286 A 22.299 22.299 0 0 1 104.414 45.082 A 20.41 20.41 0 0 1 103.9 49.686 A 33.076 33.076 0 0 1 105.619 50.366 Q 107.391 51.119 109.722 52.291 A 117.693 117.693 0 0 1 110.5 52.686 Q 111.3 53.086 111.6 53.936 Q 111.9 54.786 111.5 55.586 A 2.134 2.134 0 0 1 110.258 56.666 A 2.801 2.801 0 0 1 110.2 56.686 Q 109.814 56.815 109.447 56.815 A 2.093 2.093 0 0 1 108.5 56.586 Q 105.286 54.938 103.226 54.104 A 24.912 24.912 0 0 0 102.4 53.786 A 21.444 21.444 0 0 1 96.732 60.862 A 28.076 28.076 0 0 1 93.3 63.286 A 38.517 38.517 0 0 1 85.642 66.714 Q 82.012 67.909 77.786 68.634 A 67.379 67.379 0 0 1 76.2 68.886 A 74.465 74.465 0 0 1 65.354 69.662 Q 60.48 69.662 55.381 69.068 A 94.003 94.003 0 0 1 54.7 68.986 Q 43.4 67.686 34 63.836 A 54.896 54.896 0 0 1 26.624 60.186 Q 22.782 57.889 19.87 55.139 A 32.5 32.5 0 0 1 19 54.286 A 26.177 26.177 0 0 1 15.871 50.537 A 22.972 22.972 0 0 1 14.9 48.986 Q 13.959 49.927 12.793 51.364 A 60.881 60.881 0 0 0 11.6 52.886 A 7.26 7.26 0 0 1 11.481 53.058 Q 11.297 53.318 10.977 53.735 A 51.535 51.535 0 0 1 10.9 53.836 A 95.11 95.11 0 0 1 10.482 54.376 Q 10.225 54.705 10 54.986 L 9.6 55.486 Q 9 56.186 8.05 56.336 A 2.404 2.404 0 0 1 7.731 56.365 Q 6.98 56.383 6.4 55.886 Q 5.7 55.286 5.55 54.386 Q 5.428 53.655 5.801 52.99 A 2.745 2.745 0 0 1 6 52.686 L 8 50.186 A 85.443 85.443 0 0 1 9.787 48.049 Q 11.532 46.036 12.906 44.763 A 22.958 22.958 0 0 1 13.1 44.586 Q 12.4 41.986 12.4 39.386 L 12.4 38.386 Q 11.7 38.386 10.9 38.486 Q 6.495 39.269 3.911 41.777 A 10.341 10.341 0 0 0 3.8 41.886 A 1.928 1.928 0 0 1 2.396 42.582 A 2.472 2.472 0 0 1 2.25 42.586 A 2.286 2.286 0 0 1 1.326 42.403 A 2.192 2.192 0 0 1 0.65 41.936 A 2.17 2.17 0 0 1 0 40.366 A 2.755 2.755 0 0 1 0 40.336 A 2.454 2.454 0 0 1 0.103 39.609 A 1.969 1.969 0 0 1 0.6 38.786 A 15.335 15.335 0 0 1 4.669 35.899 A 18.693 18.693 0 0 1 6.3 35.186 A 21.031 21.031 0 0 1 11.825 33.866 A 19.385 19.385 0 0 1 13.1 33.786 A 28.263 28.263 0 0 1 15.673 27.585 Q 17.1 25.006 19.131 22.394 A 50.076 50.076 0 0 1 20.1 21.186 A 1.111 1.111 0 0 1 20.302 20.955 A 0.888 0.888 0 0 1 20.6 20.786 Q 20.8 17.686 21 13.986 L 21 12.386 Z M 42.2 15.486 L 34.7 10.486 Q 31.264 8.228 29.562 7.126 A 278.531 278.531 0 0 0 29.5 7.086 Q 28.264 6.344 27.435 5.942 A 11.049 11.049 0 0 0 27.1 5.786 A 10.792 10.792 0 0 0 26.99 6.459 Q 26.898 7.141 26.836 8.084 A 43.691 43.691 0 0 0 26.8 8.686 L 26.6 14.186 Q 26.4 18.386 26.1 21.886 A 2.728 2.728 0 0 1 25.068 23.856 A 3.568 3.568 0 0 1 24.9 23.986 Q 24.7 24.386 24.4 24.786 Q 20.1 29.986 18.7 34.686 A 15.11 15.11 0 0 0 19.355 35.056 A 18.625 18.625 0 0 0 19.8 35.286 A 2.229 2.229 0 0 1 20.496 35.953 A 2.188 2.188 0 0 1 20.8 36.686 Q 21 37.586 20.5 38.386 A 2.928 2.928 0 0 1 20.065 38.955 Q 19.352 39.667 18.319 39.467 A 2.952 2.952 0 0 1 18 39.386 A 22.326 22.326 0 0 0 18.054 40.909 A 25.913 25.913 0 0 0 18.1 41.486 A 8.78 8.78 0 0 1 20.158 41 A 8.186 8.186 0 0 1 20.3 40.986 Q 21.2 40.986 21.9 41.586 Q 22.6 42.186 22.7 43.086 A 2.291 2.291 0 0 1 22.714 43.339 Q 22.714 44.086 22.2 44.686 A 2.28 2.28 0 0 1 20.799 45.46 A 3.017 3.017 0 0 1 20.6 45.486 Q 20.1 45.586 19.5 45.686 A 18.483 18.483 0 0 0 22.018 49.338 A 21.779 21.779 0 0 0 23 50.386 Q 27.062 54.532 33.844 57.64 A 57.741 57.741 0 0 0 36.4 58.736 Q 45 62.186 55.4 63.436 A 84.161 84.161 0 0 0 64.119 64.039 Q 64.728 64.049 65.332 64.049 A 70.498 70.498 0 0 0 75.1 63.386 A 53.632 53.632 0 0 0 81.862 62.019 Q 85.295 61.078 88.121 59.713 A 28.524 28.524 0 0 0 90.4 58.486 A 20.791 20.791 0 0 0 93.826 55.969 A 15.628 15.628 0 0 0 96.7 52.486 L 94.8 52.486 A 2.291 2.291 0 0 1 94.547 52.5 Q 93.8 52.5 93.2 51.986 A 2.146 2.146 0 0 1 92.64 51.264 A 2.095 2.095 0 0 1 92.45 50.486 Q 92.4 49.586 93 48.886 Q 93.6 48.186 94.5 48.086 Q 96.5 47.986 98.5 48.286 Q 98.8 46.986 98.8 45.686 A 0.963 0.963 0 0 1 98.575 45.767 A 0.817 0.817 0 0 1 98.4 45.786 A 2.154 2.154 0 0 1 97.877 45.893 Q 97.372 45.931 96.883 45.708 A 2.532 2.532 0 0 1 96.65 45.586 Q 95.8 45.086 95.55 44.186 A 2.382 2.382 0 0 1 95.461 43.589 Q 95.452 43.09 95.667 42.607 A 2.761 2.761 0 0 1 95.75 42.436 A 2.271 2.271 0 0 1 97.017 41.347 A 3.033 3.033 0 0 1 97.2 41.286 Q 97.9 41.086 98.5 40.886 A 27.984 27.984 0 0 0 97.446 37.161 A 37.396 37.396 0 0 0 96 33.686 A 3.104 3.104 0 0 1 95.761 32.922 Q 95.644 32.235 95.879 31.547 A 3.205 3.205 0 0 1 95.9 31.486 Q 95.8 31.086 95.8 30.686 Q 96.2 23.986 97 17.086 Q 92.4 20.486 87.1 23.086 A 2.852 2.852 0 0 1 86.208 23.627 A 2.603 2.603 0 0 1 85.3 23.786 A 3.81 3.81 0 0 1 84.881 23.847 Q 83.564 23.961 82.786 22.995 A 3.364 3.364 0 0 1 82.4 22.386 A 44.48 44.48 0 0 0 65.291 14.751 A 51.641 51.641 0 0 0 64 14.486 Q 53.3 12.486 45.4 15.386 Q 43.8 16.486 42.2 15.486 Z M 71.5 46.586 Q 70.4 49.086 68.3 50.286 Q 66.277 51.442 63.883 51.021 A 8.057 8.057 0 0 1 63.7 50.986 A 7.957 7.957 0 0 1 59.143 48.508 A 10.433 10.433 0 0 1 58.6 47.886 A 7.383 7.383 0 0 1 53.516 50.653 A 9.824 9.824 0 0 1 53.2 50.686 A 8.628 8.628 0 0 1 52.585 50.708 A 7.276 7.276 0 0 1 48.2 49.286 Q 46 47.686 45.1 44.686 Q 44.9 43.986 45.25 43.386 A 1.708 1.708 0 0 1 46.297 42.587 A 2.163 2.163 0 0 1 46.3 42.586 Q 47 42.386 47.6 42.736 A 1.708 1.708 0 0 1 48.399 43.783 A 2.163 2.163 0 0 1 48.4 43.786 A 7.037 7.037 0 0 0 49.027 45.317 Q 50.274 47.504 52.869 47.289 A 5.954 5.954 0 0 0 52.9 47.286 A 5.024 5.024 0 0 0 54.208 46.987 A 3.635 3.635 0 0 0 55.9 45.686 Q 55.3 44.486 55.8 43.186 A 3.368 3.368 0 0 1 56.391 42.18 A 2.939 2.939 0 0 1 57.5 41.386 A 3.211 3.211 0 0 1 58.353 41.157 Q 59.042 41.074 59.731 41.321 A 3.553 3.553 0 0 1 59.9 41.386 Q 61.1 41.886 61.65 43.036 Q 62.2 44.186 61.7 45.486 Q 61.6 45.686 61.4 45.986 Q 62.7 47.386 64.3 47.686 A 4.72 4.72 0 0 0 64.844 47.752 Q 67.18 47.894 68.264 45.372 A 6.963 6.963 0 0 0 68.3 45.286 A 1.898 1.898 0 0 1 68.623 44.768 A 1.59 1.59 0 0 1 69.25 44.336 Q 69.9 44.086 70.55 44.386 Q 71.2 44.686 71.45 45.336 Q 71.589 45.697 71.589 46.043 A 1.707 1.707 0 0 1 71.5 46.586 Z M 32.818 33.119 A 3.349 3.349 0 0 0 31.75 33.436 Q 30.4 34.086 29.8 35.486 Q 29.2 36.886 29.85 38.286 Q 30.5 39.686 31.9 40.236 A 4.138 4.138 0 0 0 32.047 40.29 Q 32.872 40.579 33.696 40.468 A 3.838 3.838 0 0 0 34.7 40.186 A 3.58 3.58 0 0 0 35.778 39.483 A 3.602 3.602 0 0 0 36.65 38.136 Q 36.914 37.44 36.913 36.766 A 3.504 3.504 0 0 0 36.6 35.336 A 3.604 3.604 0 0 0 35.772 34.158 A 3.991 3.991 0 0 0 34.55 33.386 Q 33.666 33.02 32.818 33.119 Z M 83.004 38.304 A 3.838 3.838 0 0 0 82 38.586 A 4.3 4.3 0 0 0 81.951 38.607 A 3.483 3.483 0 0 0 80.05 40.586 A 4.138 4.138 0 0 0 79.996 40.733 Q 79.707 41.557 79.818 42.382 A 3.838 3.838 0 0 0 80.1 43.386 A 4.3 4.3 0 0 0 80.121 43.435 A 3.483 3.483 0 0 0 82.1 45.336 A 4.138 4.138 0 0 0 82.247 45.39 Q 83.072 45.679 83.896 45.568 A 3.838 3.838 0 0 0 84.9 45.286 A 4.3 4.3 0 0 0 84.949 45.265 A 3.483 3.483 0 0 0 86.85 43.286 A 4.138 4.138 0 0 0 86.905 43.14 Q 87.193 42.315 87.082 41.49 A 3.838 3.838 0 0 0 86.8 40.486 A 4.3 4.3 0 0 0 86.779 40.437 A 3.483 3.483 0 0 0 84.8 38.536 A 4.138 4.138 0 0 0 84.654 38.482 Q 83.829 38.193 83.004 38.304 Z" vector-effect="non-scaling-stroke"/></g></svg>